<svg width="13" height="13" viewBox="0 0 13 13" fill="none" xmlns="http://www.w3.org/2000/svg">
<path fill-rule="evenodd" clip-rule="evenodd" d="M6.39999 12.8C9.93461 12.8 12.8 9.93463 12.8 6.40001C12.8 2.86538 9.93461 0 6.39999 0C2.86537 0 0 2.86538 0 6.40001C0 9.93463 2.86537 12.8 6.39999 12.8ZM5.48283 3.31716L6.11715 2.68285C6.27336 2.52664 6.52662 2.52664 6.68283 2.68285L7.31715 3.31716C7.47336 3.47337 7.47336 3.72664 7.31715 3.88285L6.68283 4.51716C6.52662 4.67337 6.27336 4.67337 6.11715 4.51716L5.48283 3.88285C5.32663 3.72664 5.32663 3.47337 5.48283 3.31716ZM6.79999 6.00001C7.0209 6.00001 7.19999 6.17909 7.19999 6.40001V9.60001C7.19999 9.82092 7.0209 10 6.79999 10H5.99999C5.77908 10 5.59999 9.82092 5.59999 9.60001V6.40001C5.59999 6.17909 5.77908 6.00001 5.99999 6.00001H6.79999Z" fill="#E84E58"/>
</svg>
